HIERARCHY
ROOT Hips
{
	OFFSET -3.958830 18.904000 13.208200
	CHANNELS 6 Xposition Yposition Zposition Zrotation Yrotation Xrotation 
	JOINT LHipJoint
	{
		OFFSET 0.000000 0.000000 0.000000
		CHANNELS 3 Zrotation Yrotation Xrotation
		JOINT LeftUpLeg
		{
			OFFSET 1.800000 -1.400000 0.085000
			CHANNELS 3 Zrotation Yrotation Xrotation
			JOINT LeftLeg
			{
				OFFSET 2.215000 -6.000000 0.000000
				CHANNELS 3 Zrotation Yrotation Xrotation
				JOINT LeftFoot
				{
					OFFSET 2.500000 -6.900000 0.000000
					CHANNELS 3 Zrotation Yrotation Xrotation
					JOINT LeftToeBase
					{
						OFFSET 0.200000 -0.500000 1.950000
						CHANNELS 3 Zrotation Yrotation Xrotation
						End Site
						{
							OFFSET 0.000000 0.000000 0.000000
						}
					}
				}
			}
		}
	}
	JOINT RHipJoint
	{
		OFFSET 0.000000 0.000000 0.000000
		CHANNELS 3 Zrotation Yrotation Xrotation
		JOINT RightUpLeg
		{
			OFFSET -1.800000 -1.400000 0.085000
			CHANNELS 3 Zrotation Yrotation Xrotation
			JOINT RightLeg
			{
				OFFSET -2.215000 -6.000000 0.000000
				CHANNELS 3 Zrotation Yrotation Xrotation
				JOINT RightFoot
				{
					OFFSET -2.500000 -6.900000 0.000000
					CHANNELS 3 Zrotation Yrotation Xrotation
					JOINT RightToeBase
					{
						OFFSET -0.200000 -0.500000 1.950000
						CHANNELS 3 Zrotation Yrotation Xrotation
						End Site
						{
							OFFSET 0.000000 0.000000 0.000000
						}
					}
				}
			}
		}
	}
	JOINT LowerBack
	{
		OFFSET 0.000000 0.000000 0.000000
		CHANNELS 3 Zrotation Yrotation Xrotation
		JOINT Spine
		{
			OFFSET -0.087000 1.940000 -0.288900
			CHANNELS 3 Zrotation Yrotation Xrotation
			JOINT Spine1
			{
				OFFSET 0.000000 1.950000 0.060000
				CHANNELS 3 Zrotation Yrotation Xrotation
				JOINT Neck
				{
					OFFSET 0.000000 0.000000 0.000000
					CHANNELS 3 Zrotation Yrotation Xrotation
					JOINT Neck1
					{
						OFFSET 0.000000 1.600000 0.340000
						CHANNELS 3 Zrotation Yrotation Xrotation
						JOINT Head
						{
							OFFSET 0.000000 1.667000 -0.240000
							CHANNELS 3 Zrotation Yrotation Xrotation
							End Site
							{
								OFFSET 0.000000 0.000000 0.000000
							}
						}
					}
				}
				JOINT LeftShoulder
				{
					OFFSET 0.000000 0.000000 0.000000
					CHANNELS 3 Zrotation Yrotation Xrotation
					JOINT LeftArm
					{
						OFFSET 2.700000 1.550000 -0.730000
						CHANNELS 3 Zrotation Yrotation Xrotation
						JOINT LeftForeArm
						{
							OFFSET 5.450000 0.000000 0.000000
							CHANNELS 3 Zrotation Yrotation Xrotation
							JOINT LeftHand
							{
								OFFSET 3.450000 0.000000 0.000000
								CHANNELS 3 Zrotation Yrotation Xrotation
								JOINT LeftHandIndex1
								{
									OFFSET 0.750000 0.000000 0.000000
									CHANNELS 3 Zrotation Yrotation Xrotation
									End Site
									{
										OFFSET 0.000000 0.000000 0.000000
									}
								}
							}
						}
					}
				}
				JOINT RightShoulder
				{
					OFFSET 0.000000 0.000000 0.000000
					CHANNELS 3 Zrotation Yrotation Xrotation
					JOINT RightArm
					{
						OFFSET -2.700000 1.550000 -0.730000
						CHANNELS 3 Zrotation Yrotation Xrotation
						JOINT RightForeArm
						{
							OFFSET -5.450000 0.000000 0.000000
							CHANNELS 3 Zrotation Yrotation Xrotation
							JOINT RightHand
							{
								OFFSET -3.450000 0.000000 0.000000
								CHANNELS 3 Zrotation Yrotation Xrotation
								JOINT RightHandIndex1
								{
									OFFSET -0.750000 0.000000 0.000000
									CHANNELS 3 Zrotation Yrotation Xrotation
									End Site
									{
										OFFSET 0.000000 0.000000 0.000000
									}
								}
							}
						}
					}
				}
			}
		}
	}
}
MOTION
Frames: 11
Frame Time: 0.016667
-2.978600 17.440160 -2.034100 -19.706169 -66.357976 11.085461 -15.218320 14.307604 3.896976 1.311131 -4.233668 -26.115733 -1.621156 4.747435 21.018598 -0.683399 3.331531 3.245818 0.857780 0.538190 0.902070 17.927199 -11.227785 2.278864 -3.761595 2.891932 -7.085889 -10.382519 -2.503552 46.629846 -1.187609 -6.529487 2.110465 0.268830 -0.290020 0.231130 -3.041667 -3.776595 -7.285988 4.563377 0.242160 28.533266 -3.622351 3.142329 3.571126 2.155933 -9.579782 -10.419830 -27.161903 24.330648 36.541426 -9.660390 18.961660 -24.299390 -24.611463 -8.349600 1.417242 -35.462174 -13.736036 -4.815095 13.114181 -30.628574 -5.478382 -3.356503 2.908104 0.813890 -0.210740 0.403350 0.153510 19.860467 15.545028 6.066553 23.309374 8.312315 -9.541725 -25.938809 30.176768 -6.631675 2.103802 -1.332529 -0.068250 0.094460 -0.337130 -0.385910 
-2.826680 17.464930 -2.112240 -19.012793 -66.899923 9.579128 -15.309192 14.385279 4.067177 1.969410 -5.334064 -26.256962 -2.578631 6.624886 31.100481 -0.340442 4.922358 2.641231 0.827830 0.536710 0.882960 17.863013 -11.064166 2.161623 -3.516277 2.019397 -7.840400 -11.359119 -2.301321 45.473826 -1.163515 -6.290032 2.215840 0.214470 -0.339200 0.226340 -2.772341 -4.273764 -7.375937 2.551342 0.508956 30.390036 -1.964251 3.034027 4.779967 1.978163 -8.776021 -11.564340 -25.871473 23.226128 37.565547 -11.818580 19.566260 -25.758390 -21.991092 -10.675936 2.007811 -31.999547 -15.618638 -5.569563 17.881957 -32.003245 -6.914333 -3.291286 2.902071 0.810840 -0.239530 0.449920 0.162600 17.951056 17.131787 7.889471 29.957563 5.953319 -9.543740 -20.907651 27.615469 -5.148277 2.172892 -1.317206 -0.028890 0.058430 -0.365830 -0.366990 
-2.685850 17.443250 -2.158030 -17.222475 -66.349872 7.817666 -15.397391 13.952072 4.596658 2.673426 -8.279231 -27.615952 -5.115542 9.807654 43.713870 0.183610 7.512693 1.710700 0.842300 0.580110 0.878550 17.869608 -10.914601 1.880260 -4.302907 0.887609 -8.799023 -10.891612 -2.971079 43.635483 -1.104163 -5.992834 2.306432 0.217790 -0.373780 0.230210 -2.811381 -4.219614 -7.588817 2.125677 -0.097678 31.215193 -1.323780 2.228384 4.798026 0.988925 -8.283663 -11.592593 -24.874690 22.781864 38.274126 -11.440210 19.735540 -26.929790 -21.125754 -11.585270 1.704931 -27.036550 -16.875859 -6.193591 21.495542 -33.474841 -7.973340 -3.272020 2.911246 0.806670 -0.258820 0.477070 0.163370 19.105807 16.969006 8.468402 34.091990 4.268239 -8.852707 -16.015974 24.489914 -3.652857 2.232458 -1.314087 0.003200 0.032790 -0.379600 -0.358160 
-2.547500 17.406260 -2.233210 -15.462206 -66.028962 5.922559 -15.516107 13.521617 5.174940 4.194436 -11.593461 -28.314429 -9.170522 14.389110 54.659473 0.767412 10.368250 0.802368 0.802780 0.492150 0.886880 17.862726 -10.648905 1.571534 -4.856404 -0.205712 -9.283420 -10.737443 -3.409132 41.556975 -1.020895 -5.645440 2.395684 0.191960 -0.376150 0.203160 -2.716452 -4.399845 -7.845726 0.953621 -0.398482 32.657256 0.266291 1.686577 4.229395 -0.210857 -8.245684 -11.867898 -26.022581 22.567355 38.358704 -10.309350 18.983700 -27.883620 -20.258233 -12.247964 1.378281 -22.420519 -17.588631 -7.217892 27.571015 -35.441615 -10.262493 -3.273753 2.822311 0.875350 -0.290580 0.455220 0.112300 20.853657 16.953083 9.316826 38.037498 1.131500 -8.967354 -11.924970 21.978276 -2.521207 2.252222 -1.257455 -0.056230 0.061320 -0.326140 -0.405380 
-2.416010 17.323860 -2.337010 -12.691429 -66.117465 4.000673 -15.678570 13.130341 5.763114 6.151093 -14.793582 -29.650255 -14.774044 20.593318 62.938825 1.501865 13.027041 0.080707 0.793520 0.482440 0.867520 17.830983 -10.225774 1.241091 -5.736139 -0.764945 -11.350011 -10.062890 -4.031024 41.554965 -0.978854 -5.571869 2.410025 0.185060 -0.354890 0.209540 -2.325353 -4.888810 -8.144871 -2.369895 0.143031 32.906904 3.200318 1.268303 3.583575 -1.394240 -8.064126 -11.609908 -25.663042 22.149556 37.550673 -10.272290 19.306180 -27.186740 -19.669577 -12.257540 0.841058 -17.789747 -18.616720 -7.839548 34.160744 -34.988375 -12.117340 -3.303877 2.828328 0.858670 -0.276550 0.442780 0.135350 22.940009 16.596753 9.753861 40.155245 -1.385616 -9.053945 -8.521753 20.330017 -1.831703 2.274818 -1.288078 -0.059350 0.047660 -0.337480 -0.392960 
-2.295330 17.224950 -2.442660 -10.259800 -66.817156 1.944380 -15.768352 12.749931 6.259305 8.888434 -17.349070 -29.664007 -21.974438 28.887488 69.071766 2.283221 15.537432 -0.527623 0.810690 0.522530 0.861420 17.835859 -9.898501 0.953775 -6.388642 -1.308872 -12.588974 -10.220810 -4.246534 41.654496 -0.973697 -5.529773 2.430808 0.190910 -0.375090 0.204170 -2.002216 -5.148833 -8.407368 -5.330178 0.897982 33.414468 5.610082 1.281314 2.532081 -2.261510 -7.764930 -11.567470 -25.622420 22.625531 38.403801 -9.846900 20.035460 -27.694390 -20.032237 -12.620014 0.210967 -12.461428 -18.655120 -8.974684 41.232564 -35.141559 -14.283841 -3.311754 2.819389 0.853240 -0.289400 0.458760 0.148710 25.394426 16.679678 10.280711 41.859988 -3.679979 -8.222628 -2.681716 15.011490 -0.805591 2.330097 -1.252465 -0.038020 0.031760 -0.358680 -0.383780 
-2.174150 17.086910 -2.543550 -8.054602 -68.509054 0.493694 -15.850848 12.376864 6.714865 11.738909 -19.167115 -29.567059 -29.628705 38.785018 73.509432 2.991222 17.651665 -0.965708 0.814230 0.523500 0.861800 17.842256 -9.550673 0.692565 -6.937196 -1.556199 -14.800151 -11.470767 -3.891685 42.273611 -0.976366 -5.566102 2.385558 0.172850 -0.382140 0.266670 -1.633526 -5.419629 -8.629627 -8.380902 1.911519 32.716797 8.047749 1.492965 1.601740 -3.174515 -7.353300 -10.739116 -24.887153 22.332936 39.038222 -11.100280 20.672700 -27.697320 -19.795824 -11.529942 -0.729395 -7.830037 -19.439131 -9.383341 46.686583 -34.190431 -15.559380 -3.375550 2.864665 0.826920 -0.267900 0.471960 0.146500 27.146940 15.435186 9.799825 43.955464 -4.998813 -8.014769 -0.024505 10.691531 -0.485751 2.376246 -1.247288 0.008290 -0.028710 -0.352860 -0.374760 
-2.065260 16.922170 -2.613880 -8.479862 -69.455293 1.410785 -15.935877 12.036609 7.109913 15.835281 -20.257326 -28.816291 -38.069081 47.064356 73.338000 3.328525 18.290796 -1.012686 0.857600 0.610810 0.862350 17.801577 -9.359100 0.526536 -7.178531 -2.136633 -16.131947 -11.858615 -4.253101 44.111038 -1.040323 -5.829685 2.331835 0.225330 -0.346160 0.225120 -1.619885 -5.466224 -8.761656 -8.868515 1.309902 32.004349 9.017013 0.997250 0.678085 -4.207757 -7.105776 -10.530225 -25.302219 23.398509 38.981160 -8.898310 21.312270 -27.054890 -18.737516 -10.853050 -1.177962 -4.050310 -20.487030 -9.612102 49.823322 -31.474456 -15.421101 -3.388735 2.853740 0.804650 -0.261020 0.477070 0.209680 28.347866 14.029218 9.330510 45.789979 -7.727633 -8.862548 3.448043 8.834724 -0.535721 2.367795 -1.214738 -0.002550 0.032480 -0.413090 -0.340730 
-1.914540 16.792730 -2.699630 -8.254035 -69.905561 0.986784 -15.966827 11.800453 7.414549 19.198694 -21.774306 -25.876812 -44.505354 54.841660 74.219761 3.410938 18.346703 -1.012213 0.805940 0.530730 0.864990 17.806426 -9.145798 0.404239 -7.054671 -2.715476 -18.020456 -12.206470 -4.524490 44.604105 -1.035743 -5.841607 2.305221 0.186350 -0.365500 0.217840 -1.504659 -5.626214 -8.909985 -9.955772 1.163004 33.122732 10.116291 0.908518 -0.866046 -4.626117 -6.459327 -10.313478 -25.435674 23.569530 40.666152 -10.362030 21.971510 -28.738750 -17.928754 -10.856798 -1.747605 -0.037128 -22.480171 -10.413297 53.425649 -29.184760 -15.725494 -3.443229 2.811443 0.859590 -0.275460 0.476260 0.159830 28.660727 13.053124 8.950879 48.428006 -10.232324 -10.328374 7.897386 6.112234 -0.688894 2.354376 -1.099851 -0.041510 0.034910 -0.364500 -0.385450 
-1.756210 16.700460 -2.731630 -9.930037 -70.455514 2.453135 -16.026807 11.508662 7.691896 22.497372 -22.859360 -22.464718 -47.633402 60.160239 75.576843 3.416396 17.913772 -0.898703 0.804740 0.532110 0.872050 17.759943 -9.079415 0.383537 -6.597921 -3.152997 -19.839851 -12.341496 -4.838645 44.931574 -1.065964 -5.837315 2.303437 0.154310 -0.395590 0.243510 -1.789127 -5.396358 -9.001871 -8.358840 0.047600 35.031034 8.833832 0.694127 -3.068476 -4.650599 -6.076562 -9.842931 -26.183237 23.460095 41.395346 -12.269140 21.865930 -31.412390 -17.213825 -9.925759 -2.452270 2.594964 -24.888763 -10.918404 57.967507 -29.094600 -17.115858 -3.439043 2.785553 0.880110 -0.298580 0.520090 0.161040 28.072846 11.100863 7.941513 51.921154 -11.978473 -12.099310 10.158186 3.683332 -0.950757 2.395556 -1.012581 -0.010120 0.022360 -0.369000 -0.377920 
-1.590950 16.627160 -2.733340 -14.339520 -70.139752 6.695826 -16.140002 11.076597 7.951336 25.325448 -24.335592 -19.086557 -46.027235 62.278957 79.169368 3.443410 17.770372 -0.856300 0.815000 0.546650 0.879040 17.648633 -9.168937 0.457116 -5.207609 -3.562585 -21.437717 -12.316309 -5.224581 44.877689 -1.077088 -5.788981 2.313214 0.147130 -0.420410 0.235030 -2.588181 -4.790819 -9.004648 -3.220240 -3.005295 36.783342 5.332042 -0.656997 -5.394736 -4.794353 -5.955920 -9.634252 -28.189354 23.538986 41.084884 -12.206690 21.089250 -31.923810 -15.774169 -8.544898 -2.611025 3.408898 -27.595839 -10.865576 64.018591 -28.392321 -18.901231 -3.413228 2.781057 0.875360 -0.329010 0.537400 0.168270 26.820346 7.973065 6.281363 55.381391 -13.156076 -13.819279 11.444230 2.009533 -1.205075 2.463532 -0.955680 0.010640 0.016250 -0.390210 -0.362240 
